<svg xmlns="http://www.w3.org/2000/svg" xmlns:xlink="http://www.w3.org/1999/xlink" width="500" zoomAndPan="magnify" viewBox="0 0 375 374.999991" height="500" preserveAspectRatio="xMidYMid meet" version="1.2"><defs><clipPath id="a920954edc"><path d="M 9.820312 81 L 369 81 L 369 322 L 9.820312 322 Z M 9.820312 81 "/></clipPath><clipPath id="0be8d4fb68"><path d="M 133.121094 10.84375 L 238.84375 10.84375 L 238.84375 116.566406 L 133.121094 116.566406 Z M 133.121094 10.84375 "/></clipPath><clipPath id="d239a5c512"><path d="M 185.980469 10.84375 C 156.789062 10.84375 133.121094 34.511719 133.121094 63.707031 C 133.121094 92.902344 156.789062 116.566406 185.980469 116.566406 C 215.175781 116.566406 238.84375 92.902344 238.84375 63.707031 C 238.84375 34.511719 215.175781 10.84375 185.980469 10.84375 Z M 185.980469 10.84375 "/></clipPath><clipPath id="c82dedd835"><path d="M 133.121094 6.753906 L 247.121094 6.753906 L 247.121094 120.753906 L 133.121094 120.753906 Z M 133.121094 6.753906 "/></clipPath></defs><g id="89492f9c0d"><g style="fill:#000000;fill-opacity:1;"><g transform="translate(61.753235, 359.156226)"><path style="stroke:none" d="M 16.984375 -16.734375 L 6.109375 -16.734375 L 6.109375 -12.265625 L 16.234375 -12.265625 L 16.234375 -8.859375 L 6.109375 -8.859375 L 6.109375 -3.40625 L 17.359375 -3.40625 L 17.359375 0 L 2.046875 0 L 2.046875 -20.140625 L 16.984375 -20.140625 Z M 16.984375 -16.734375 "/></g></g><g style="fill:#000000;fill-opacity:1;"><g transform="translate(80.509639, 359.156226)"><path style="stroke:none" d="M 10.71875 -20.46875 C 12.78125 -20.46875 14.519531 -19.96875 15.9375 -18.96875 C 17.363281 -17.96875 18.3125 -16.5 18.78125 -14.5625 L 14.765625 -13.609375 C 14.523438 -14.660156 14.03125 -15.484375 13.28125 -16.078125 C 12.53125 -16.679688 11.609375 -16.984375 10.515625 -16.984375 C 8.941406 -16.984375 7.710938 -16.425781 6.828125 -15.3125 C 5.953125 -14.195312 5.515625 -12.492188 5.515625 -10.203125 C 5.515625 -8.109375 5.875 -6.410156 6.59375 -5.109375 C 7.3125 -3.804688 8.601562 -3.15625 10.46875 -3.15625 C 11.644531 -3.15625 12.597656 -3.53125 13.328125 -4.28125 C 14.054688 -5.03125 14.582031 -6.066406 14.90625 -7.390625 L 18.84375 -6.15625 C 18.300781 -3.96875 17.304688 -2.335938 15.859375 -1.265625 C 14.421875 -0.191406 12.628906 0.34375 10.484375 0.34375 C 8.671875 0.34375 7.066406 -0.078125 5.671875 -0.921875 C 4.285156 -1.765625 3.210938 -2.957031 2.453125 -4.5 C 1.703125 -6.039062 1.328125 -7.84375 1.328125 -9.90625 C 1.328125 -11.738281 1.644531 -13.457031 2.28125 -15.0625 C 2.914062 -16.664062 3.9375 -17.96875 5.34375 -18.96875 C 6.75 -19.96875 8.539062 -20.46875 10.71875 -20.46875 Z M 10.71875 -20.46875 "/></g></g><g style="fill:#000000;fill-opacity:1;"><g transform="translate(100.812668, 359.156226)"><path style="stroke:none" d="M 10.9375 -20.46875 C 13.0625 -20.46875 14.851562 -20.019531 16.3125 -19.125 C 17.769531 -18.226562 18.863281 -16.988281 19.59375 -15.40625 C 20.332031 -13.832031 20.703125 -12.046875 20.703125 -10.046875 C 20.703125 -7.898438 20.3125 -6.050781 19.53125 -4.5 C 18.75 -2.945312 17.628906 -1.75 16.171875 -0.90625 C 14.710938 -0.0703125 12.988281 0.34375 11 0.34375 C 8.914062 0.34375 7.132812 -0.0859375 5.65625 -0.953125 C 4.1875 -1.816406 3.078125 -3.019531 2.328125 -4.5625 C 1.578125 -6.113281 1.203125 -7.910156 1.203125 -9.953125 C 1.203125 -12.078125 1.578125 -13.929688 2.328125 -15.515625 C 3.078125 -17.097656 4.175781 -18.316406 5.625 -19.171875 C 7.082031 -20.035156 8.851562 -20.46875 10.9375 -20.46875 Z M 5.40625 -10.0625 C 5.40625 -8.488281 5.65625 -7.1875 6.15625 -6.15625 C 6.664062 -5.125 7.34375 -4.363281 8.1875 -3.875 C 9.03125 -3.394531 9.957031 -3.15625 10.96875 -3.15625 C 11.90625 -3.15625 12.785156 -3.367188 13.609375 -3.796875 C 14.429688 -4.222656 15.117188 -4.957031 15.671875 -6 C 16.234375 -7.039062 16.515625 -8.414062 16.515625 -10.125 C 16.515625 -12.132812 16.070312 -13.78125 15.1875 -15.0625 C 14.300781 -16.34375 12.882812 -16.984375 10.9375 -16.984375 C 9.007812 -16.984375 7.601562 -16.335938 6.71875 -15.046875 C 5.84375 -13.753906 5.40625 -12.09375 5.40625 -10.0625 Z M 5.40625 -10.0625 "/></g></g><g style="fill:#000000;fill-opacity:1;"><g transform="translate(122.690454, 359.156226)"><path style="stroke:none" d="M 9.5 -5.234375 L 14.421875 -20.140625 L 18.734375 -20.140625 L 11.53125 0 L 7.171875 0 L 0 -20.140625 L 4.421875 -20.140625 Z M 9.5 -5.234375 "/></g></g><g style="fill:#000000;fill-opacity:1;"><g transform="translate(141.446858, 359.156226)"><path style="stroke:none" d="M 5.96875 0 L 1.90625 0 L 1.90625 -20.140625 L 5.96875 -20.140625 Z M 5.96875 0 "/></g></g><g style="fill:#000000;fill-opacity:1;"><g transform="translate(149.264368, 359.156226)"><path style="stroke:none" d="M 9.078125 -20.46875 C 11.316406 -20.46875 13.140625 -19.972656 14.546875 -18.984375 C 15.960938 -17.992188 16.710938 -16.457031 16.796875 -14.375 L 12.71875 -14.203125 C 12.582031 -15.140625 12.238281 -15.859375 11.6875 -16.359375 C 11.132812 -16.867188 10.25 -17.125 9.03125 -17.125 C 8.1875 -17.125 7.40625 -16.972656 6.6875 -16.671875 C 5.976562 -16.378906 5.625 -15.863281 5.625 -15.125 C 5.625 -14.507812 5.941406 -14.019531 6.578125 -13.65625 C 7.210938 -13.289062 8.347656 -12.921875 9.984375 -12.546875 C 11.503906 -12.191406 12.753906 -11.8125 13.734375 -11.40625 C 14.722656 -11 15.570312 -10.347656 16.28125 -9.453125 C 17 -8.566406 17.359375 -7.363281 17.359375 -5.84375 C 17.359375 -5.082031 17.175781 -4.269531 16.8125 -3.40625 C 16.457031 -2.539062 15.878906 -1.800781 15.078125 -1.1875 C 14.472656 -0.695312 13.675781 -0.316406 12.6875 -0.046875 C 11.707031 0.210938 10.570312 0.34375 9.28125 0.34375 C 6.769531 0.34375 4.835938 -0.222656 3.484375 -1.359375 C 2.140625 -2.492188 1.316406 -4.222656 1.015625 -6.546875 L 4.953125 -6.921875 C 5.378906 -4.347656 6.84375 -3.0625 9.34375 -3.0625 C 10.65625 -3.0625 11.640625 -3.335938 12.296875 -3.890625 C 12.960938 -4.441406 13.296875 -5.09375 13.296875 -5.84375 C 13.296875 -6.394531 13.128906 -6.828125 12.796875 -7.140625 C 12.472656 -7.460938 11.957031 -7.738281 11.25 -7.96875 C 10.550781 -8.207031 9.453125 -8.503906 7.953125 -8.859375 C 6.078125 -9.273438 4.570312 -9.96875 3.4375 -10.9375 C 2.3125 -11.914062 1.75 -13.21875 1.75 -14.84375 C 1.75 -15.726562 1.972656 -16.597656 2.421875 -17.453125 C 2.867188 -18.304688 3.640625 -19.019531 4.734375 -19.59375 C 5.835938 -20.175781 7.285156 -20.46875 9.078125 -20.46875 Z M 9.078125 -20.46875 "/></g></g><g style="fill:#000000;fill-opacity:1;"><g transform="translate(168.020772, 359.156226)"><path style="stroke:none" d="M 5.96875 0 L 1.90625 0 L 1.90625 -20.140625 L 5.96875 -20.140625 Z M 5.96875 0 "/></g></g><g style="fill:#000000;fill-opacity:1;"><g transform="translate(175.838282, 359.156226)"><path style="stroke:none" d="M 10.9375 -20.46875 C 13.0625 -20.46875 14.851562 -20.019531 16.3125 -19.125 C 17.769531 -18.226562 18.863281 -16.988281 19.59375 -15.40625 C 20.332031 -13.832031 20.703125 -12.046875 20.703125 -10.046875 C 20.703125 -7.898438 20.3125 -6.050781 19.53125 -4.5 C 18.75 -2.945312 17.628906 -1.75 16.171875 -0.90625 C 14.710938 -0.0703125 12.988281 0.34375 11 0.34375 C 8.914062 0.34375 7.132812 -0.0859375 5.65625 -0.953125 C 4.1875 -1.816406 3.078125 -3.019531 2.328125 -4.5625 C 1.578125 -6.113281 1.203125 -7.910156 1.203125 -9.953125 C 1.203125 -12.078125 1.578125 -13.929688 2.328125 -15.515625 C 3.078125 -17.097656 4.175781 -18.316406 5.625 -19.171875 C 7.082031 -20.035156 8.851562 -20.46875 10.9375 -20.46875 Z M 5.40625 -10.0625 C 5.40625 -8.488281 5.65625 -7.1875 6.15625 -6.15625 C 6.664062 -5.125 7.34375 -4.363281 8.1875 -3.875 C 9.03125 -3.394531 9.957031 -3.15625 10.96875 -3.15625 C 11.90625 -3.15625 12.785156 -3.367188 13.609375 -3.796875 C 14.429688 -4.222656 15.117188 -4.957031 15.671875 -6 C 16.234375 -7.039062 16.515625 -8.414062 16.515625 -10.125 C 16.515625 -12.132812 16.070312 -13.78125 15.1875 -15.0625 C 14.300781 -16.34375 12.882812 -16.984375 10.9375 -16.984375 C 9.007812 -16.984375 7.601562 -16.335938 6.71875 -15.046875 C 5.84375 -13.753906 5.40625 -12.09375 5.40625 -10.0625 Z M 5.40625 -10.0625 "/></g></g><g style="fill:#000000;fill-opacity:1;"><g transform="translate(197.716068, 359.156226)"><path style="stroke:none" d="M 14.265625 -6.6875 L 14.265625 -20.140625 L 18.03125 -20.140625 L 18.03125 0 L 13.953125 0 L 5.84375 -13.140625 L 5.84375 0 L 2.078125 0 L 2.078125 -20.140625 L 6.015625 -20.140625 Z M 14.265625 -6.6875 "/></g></g><g style="fill:#000000;fill-opacity:1;"><g transform="translate(218.019097, 359.156226)"><path style="stroke:none" d=""/></g></g><g style="fill:#000000;fill-opacity:1;"><g transform="translate(225.836607, 359.156226)"><path style="stroke:none" d="M 9.390625 -20.46875 C 10.515625 -20.46875 11.5 -20.265625 12.34375 -19.859375 C 13.1875 -19.460938 13.832031 -18.914062 14.28125 -18.21875 C 14.738281 -17.53125 14.96875 -16.753906 14.96875 -15.890625 C 14.96875 -14.910156 14.671875 -14.066406 14.078125 -13.359375 C 13.484375 -12.648438 12.550781 -11.890625 11.28125 -11.078125 L 14.09375 -7.375 C 14.238281 -7.632812 14.394531 -7.992188 14.5625 -8.453125 C 14.738281 -8.910156 14.863281 -9.316406 14.9375 -9.671875 L 18.421875 -8.890625 C 18.085938 -7.671875 17.785156 -6.769531 17.515625 -6.1875 C 17.253906 -5.601562 16.972656 -5.125 16.671875 -4.75 C 17.179688 -4.257812 17.789062 -3.769531 18.5 -3.28125 C 19.21875 -2.800781 19.671875 -2.53125 19.859375 -2.46875 L 17.515625 0.53125 C 17.046875 0.320312 16.472656 -0.0195312 15.796875 -0.5 C 15.128906 -0.988281 14.609375 -1.421875 14.234375 -1.796875 C 13.503906 -1.109375 12.675781 -0.578125 11.75 -0.203125 C 10.832031 0.171875 9.707031 0.359375 8.375 0.359375 C 6.613281 0.359375 5.195312 0.0390625 4.125 -0.59375 C 3.0625 -1.226562 2.3125 -1.992188 1.875 -2.890625 C 1.445312 -3.796875 1.234375 -4.671875 1.234375 -5.515625 C 1.234375 -6.597656 1.5625 -7.679688 2.21875 -8.765625 C 2.875 -9.859375 4.082031 -10.835938 5.84375 -11.703125 C 4.457031 -13.273438 3.765625 -14.742188 3.765625 -16.109375 C 3.765625 -16.941406 3.988281 -17.6875 4.4375 -18.34375 C 4.894531 -19 5.546875 -19.515625 6.390625 -19.890625 C 7.242188 -20.273438 8.242188 -20.46875 9.390625 -20.46875 Z M 7.53125 -16.234375 C 7.53125 -15.773438 7.832031 -15.179688 8.4375 -14.453125 L 9.28125 -13.46875 C 9.976562 -13.863281 10.53125 -14.253906 10.9375 -14.640625 C 11.351562 -15.023438 11.5625 -15.46875 11.5625 -15.96875 C 11.5625 -16.425781 11.382812 -16.835938 11.03125 -17.203125 C 10.6875 -17.566406 10.160156 -17.75 9.453125 -17.75 C 8.847656 -17.75 8.375 -17.59375 8.03125 -17.28125 C 7.695312 -16.96875 7.53125 -16.617188 7.53125 -16.234375 Z M 5.203125 -5.65625 C 5.203125 -4.863281 5.457031 -4.195312 5.96875 -3.65625 C 6.488281 -3.113281 7.238281 -2.84375 8.21875 -2.84375 C 8.925781 -2.84375 9.550781 -2.976562 10.09375 -3.25 C 10.632812 -3.519531 11.195312 -3.890625 11.78125 -4.359375 L 7.84375 -9.21875 C 6.945312 -8.738281 6.28125 -8.1875 5.84375 -7.5625 C 5.414062 -6.945312 5.203125 -6.3125 5.203125 -5.65625 Z M 5.203125 -5.65625 "/></g></g><g style="fill:#000000;fill-opacity:1;"><g transform="translate(246.139637, 359.156226)"><path style="stroke:none" d=""/></g></g><g style="fill:#000000;fill-opacity:1;"><g transform="translate(253.957147, 359.156226)"><path style="stroke:none" d="M 5.96875 0 L 1.90625 0 L 1.90625 -20.140625 L 5.96875 -20.140625 Z M 5.96875 0 "/></g></g><g style="fill:#000000;fill-opacity:1;"><g transform="translate(261.774657, 359.156226)"><path style="stroke:none" d="M 14.265625 -6.6875 L 14.265625 -20.140625 L 18.03125 -20.140625 L 18.03125 0 L 13.953125 0 L 5.84375 -13.140625 L 5.84375 0 L 2.078125 0 L 2.078125 -20.140625 L 6.015625 -20.140625 Z M 14.265625 -6.6875 "/></g></g><g style="fill:#000000;fill-opacity:1;"><g transform="translate(282.077699, 359.156226)"><path style="stroke:none" d="M 10.71875 -20.46875 C 12.78125 -20.46875 14.519531 -19.96875 15.9375 -18.96875 C 17.363281 -17.96875 18.3125 -16.5 18.78125 -14.5625 L 14.765625 -13.609375 C 14.523438 -14.660156 14.03125 -15.484375 13.28125 -16.078125 C 12.53125 -16.679688 11.609375 -16.984375 10.515625 -16.984375 C 8.941406 -16.984375 7.710938 -16.425781 6.828125 -15.3125 C 5.953125 -14.195312 5.515625 -12.492188 5.515625 -10.203125 C 5.515625 -8.109375 5.875 -6.410156 6.59375 -5.109375 C 7.3125 -3.804688 8.601562 -3.15625 10.46875 -3.15625 C 11.644531 -3.15625 12.597656 -3.53125 13.328125 -4.28125 C 14.054688 -5.03125 14.582031 -6.066406 14.90625 -7.390625 L 18.84375 -6.15625 C 18.300781 -3.96875 17.304688 -2.335938 15.859375 -1.265625 C 14.421875 -0.191406 12.628906 0.34375 10.484375 0.34375 C 8.671875 0.34375 7.066406 -0.078125 5.671875 -0.921875 C 4.285156 -1.765625 3.210938 -2.957031 2.453125 -4.5 C 1.703125 -6.039062 1.328125 -7.84375 1.328125 -9.90625 C 1.328125 -11.738281 1.644531 -13.457031 2.28125 -15.0625 C 2.914062 -16.664062 3.9375 -17.96875 5.34375 -18.96875 C 6.75 -19.96875 8.539062 -20.46875 10.71875 -20.46875 Z M 10.71875 -20.46875 "/></g></g><g style="fill:#000000;fill-opacity:1;"><g transform="translate(302.380715, 359.156226)"><path style="stroke:none" d="M 5.875 0 L 2.03125 0 L 2.03125 -3.859375 L 5.875 -3.859375 Z M 5.875 0 "/></g></g><path style=" stroke:none;fill-rule:nonzero;fill:#7ed957;fill-opacity:1;" d="M 270.285156 278.660156 C 278.199219 297.859375 272.25 317 251.140625 317.15625 C 247.984375 317.207031 245.1875 316.847656 242.707031 316.226562 C 228.375 312.914062 224.027344 301.117188 224.027344 301.117188 C 219.734375 301.945312 215.488281 302.667969 211.453125 303.238281 C 163.335938 310.328125 133.535156 302.460938 133.535156 302.460938 C 133.535156 302.460938 112.421875 324.917969 94.574219 314.363281 C 91.3125 312.449219 88.882812 309.914062 87.171875 307.066406 C 79.414062 294.496094 84.691406 276.023438 84.691406 276.023438 C 81.6875 274.679688 78.894531 273.074219 76.257812 271.316406 C 54.265625 256.515625 43.710938 229.144531 43.710938 229.144531 C 20.480469 224.851562 15.824219 211.242188 14.945312 194.84375 C 14.683594 191.21875 14.683594 187.390625 14.683594 183.5625 C 14.683594 162.453125 43.710938 163.074219 43.710938 163.074219 C 50.335938 147.914062 62.234375 137.308594 62.234375 137.308594 L 50.335938 103.625 C 76.773438 97.054688 91.933594 112.886719 91.933594 112.886719 C 91.933594 112.886719 114.390625 87.792969 183.101562 85.824219 C 192.722656 85.566406 202.347656 86.238281 211.714844 87.792969 C 269.351562 97.207031 318.972656 139.273438 317.832031 191.480469 C 316.539062 252.273438 270.285156 278.660156 270.285156 278.660156 Z M 270.285156 278.660156 "/><path style=" stroke:none;fill-rule:nonzero;fill:#00bf63;fill-opacity:1;" d="M 94.210938 262.570312 C 94.210938 262.570312 85 270.488281 83.136719 278.402344 C 54.578125 263.449219 43.710938 229.09375 43.710938 229.09375 C 20.480469 224.800781 15.824219 211.191406 14.945312 194.789062 C 25.5 215.382812 54.058594 212.332031 54.058594 212.332031 C 54.527344 239.648438 94.210938 262.570312 94.210938 262.570312 Z M 94.210938 262.570312 "/><path style=" stroke:none;fill-rule:nonzero;fill:#00bf63;fill-opacity:1;" d="M 224.027344 282.386719 C 224.027344 282.386719 226.976562 295.789062 230.234375 303.550781 C 182.117188 310.636719 133.535156 302.460938 133.535156 302.460938 C 133.535156 302.460938 112.421875 324.917969 94.574219 314.363281 C 91.3125 312.449219 88.882812 309.914062 87.171875 307.066406 C 112.628906 311.929688 126.238281 285.128906 126.238281 285.128906 C 149.574219 298.324219 224.027344 282.4375 224.027344 282.4375 Z M 224.027344 282.386719 "/><path style=" stroke:none;fill-rule:nonzero;fill:#00bf63;fill-opacity:1;" d="M 270.285156 278.660156 C 278.199219 297.859375 272.25 317 251.140625 317.15625 C 247.984375 317.207031 245.1875 316.847656 242.707031 316.226562 C 273.179688 299.566406 245.601562 269.660156 245.601562 269.660156 C 245.601562 269.660156 280.425781 245.445312 285.238281 185.632812 C 289.53125 132.339844 241.929688 100.984375 211.714844 87.792969 C 269.351562 97.207031 318.972656 139.273438 317.832031 191.480469 C 316.539062 252.273438 270.285156 278.660156 270.285156 278.660156 Z M 270.285156 278.660156 "/><g clip-rule="nonzero" clip-path="url(#a920954edc)"><path style=" stroke:none;fill-rule:nonzero;fill:#2e2c2c;fill-opacity:1;" d="M 365.847656 145.535156 C 364.605469 145.015625 353.636719 140.824219 344.839844 146 C 339.71875 149 336.667969 154.328125 335.734375 161.832031 C 333.5625 179.0625 330.40625 181.132812 322.074219 181.027344 C 319.902344 159.8125 309.917969 139.84375 292.6875 122.714844 C 265.210938 95.5 224.234375 79.925781 182.996094 81.117188 C 126.808594 82.722656 100.523438 99.535156 91.882812 106.675781 C 85.519531 101.917969 70.773438 93.742188 49.246094 99.121094 C 47.953125 99.433594 46.917969 100.261719 46.300781 101.449219 C 45.679688 102.589844 45.574219 103.984375 45.988281 105.226562 L 56.855469 136.117188 C 53.179688 139.84375 45.9375 147.914062 40.710938 158.574219 C 35.226562 158.933594 23.792969 160.488281 16.496094 167.625 C 12.203125 171.816406 9.976562 177.25 9.976562 183.613281 C 9.976562 202.707031 9.976562 226.402344 40.347656 233.234375 C 43.816406 241.148438 56.386719 266.453125 79.308594 278.609375 C 77.652344 287.355469 75.636719 308.566406 92.191406 318.398438 C 96.433594 320.882812 100.730469 321.917969 104.972656 321.917969 C 118.21875 321.917969 130.378906 311.929688 134.980469 307.636719 C 144.035156 309.550781 175.390625 314.671875 221.441406 306.394531 C 224.75 311.929688 233.183594 321.867188 250.726562 321.867188 C 250.878906 321.867188 250.984375 321.867188 251.140625 321.867188 C 263.867188 321.761719 270.4375 315.761719 273.75 310.792969 C 278.871094 303.03125 279.648438 291.960938 275.921875 280.628906 C 286.996094 273.023438 321.300781 245.289062 322.488281 191.632812 C 322.488281 191.167969 322.488281 190.703125 322.488281 190.289062 C 337.183594 189.824219 342.460938 182.941406 344.945312 163.074219 C 345.515625 158.625 347.066406 155.625 349.5 154.121094 C 353.636719 151.691406 360.15625 153.398438 362.328125 154.226562 C 364.710938 155.15625 367.398438 154.019531 368.382812 151.640625 C 369.367188 149.257812 368.226562 146.515625 365.796875 145.585938 Z M 268.007812 274.625 C 265.988281 275.816406 265.109375 278.300781 266.039062 280.421875 C 270.078125 290.148438 270.078125 299.511719 266.039062 305.566406 C 263.039062 310.121094 258.019531 312.449219 251.085938 312.5 C 233.652344 312.5 228.632812 300.03125 228.425781 299.511719 C 227.648438 297.390625 225.425781 296.097656 223.199219 296.5625 C 169.597656 306.757812 135.085938 298.066406 134.773438 297.960938 C 133.121094 297.546875 131.359375 298.011719 130.222656 299.253906 C 130.015625 299.460938 111.492188 318.917969 97.003906 310.328125 C 82.515625 301.738281 89.140625 277.523438 89.191406 277.316406 C 89.8125 275.09375 88.726562 272.761719 86.65625 271.78125 C 61.042969 260.191406 48.265625 227.800781 48.109375 227.4375 C 47.539062 225.9375 46.195312 224.851562 44.589844 224.542969 C 20.53125 220.089844 19.34375 206.070312 19.34375 183.5625 C 19.34375 179.683594 20.53125 176.679688 23.015625 174.25 C 29.429688 167.9375 41.953125 167.78125 43.503906 167.78125 C 43.609375 167.78125 43.660156 167.78125 43.660156 167.78125 C 45.367188 167.679688 47.28125 166.695312 48.007812 164.988281 C 54.113281 150.964844 65.234375 140.929688 65.339844 140.824219 C 66.738281 139.582031 67.253906 137.566406 66.632812 135.804688 L 56.542969 107.195312 C 76.671875 104.246094 88.105469 115.628906 88.621094 116.144531 C 89.503906 117.078125 90.640625 117.542969 92.089844 117.59375 C 93.382812 117.59375 94.625 117.023438 95.503906 116.042969 C 95.710938 115.78125 117.390625 92.394531 183.308594 90.535156 C 221.441406 89.394531 260.867188 104.347656 286.117188 129.390625 C 304.328125 147.5 313.746094 168.972656 313.226562 191.425781 C 311.984375 248.703125 268.472656 274.417969 268.007812 274.679688 Z M 268.007812 274.625 "/></g><path style=" stroke:none;fill-rule:nonzero;fill:#2e2c2c;fill-opacity:1;" d="M 262.160156 150.085938 C 260.761719 150.085938 259.417969 149.464844 258.488281 148.277344 C 243.535156 129.027344 215.75 117.078125 185.894531 117.078125 C 157.800781 117.078125 131.722656 127.476562 116.148438 144.914062 C 114.441406 146.828125 111.492188 146.984375 109.578125 145.273438 C 107.664062 143.566406 107.507812 140.617188 109.214844 138.703125 C 126.546875 119.351562 155.210938 107.761719 185.894531 107.761719 C 218.542969 107.761719 249.171875 121.113281 265.832031 142.585938 C 267.386719 144.601562 267.023438 147.550781 265.007812 149.105469 C 264.179688 149.777344 263.144531 150.085938 262.160156 150.085938 Z M 262.160156 150.085938 "/><path style=" stroke:none;fill-rule:nonzero;fill:#2e2c2c;fill-opacity:1;" d="M 83.449219 193.496094 C 82.929688 193.496094 82.414062 193.394531 81.949219 193.238281 C 81.535156 193.082031 81.171875 192.929688 80.808594 192.773438 C 76.773438 190.910156 73.875 187.339844 72.582031 182.734375 C 71.394531 178.441406 71.859375 173.679688 73.824219 169.4375 C 75.84375 165.144531 79.152344 161.78125 83.242188 159.917969 C 87.535156 157.953125 92.191406 157.898438 96.226562 159.8125 C 98.558594 160.902344 99.539062 163.695312 98.453125 166.023438 C 97.367188 168.351562 94.574219 169.386719 92.246094 168.246094 C 90.691406 167.523438 88.882812 167.574219 87.070312 168.402344 C 85 169.335938 83.292969 171.09375 82.257812 173.371094 C 81.171875 175.648438 80.964844 178.078125 81.535156 180.25 C 82.050781 182.164062 83.191406 183.613281 84.742188 184.339844 C 87.171875 185.21875 88.570312 187.960938 87.691406 190.394531 C 87.019531 192.308594 85.3125 193.496094 83.449219 193.496094 Z M 83.449219 193.496094 "/><g clip-rule="nonzero" clip-path="url(#0be8d4fb68)"><g clip-rule="nonzero" clip-path="url(#d239a5c512)"><path style=" stroke:none;fill-rule:nonzero;fill:#b19358;fill-opacity:1;" d="M 133.121094 10.84375 L 238.84375 10.84375 L 238.84375 116.566406 L 133.121094 116.566406 Z M 133.121094 10.84375 "/></g></g><g clip-rule="nonzero" clip-path="url(#c82dedd835)"><path style=" stroke:none;fill-rule:evenodd;fill:#ffffff;fill-opacity:1;" d="M 190.066406 6.753906 C 158.636719 6.753906 133.121094 32.273438 133.121094 63.703125 C 133.121094 95.132812 158.636719 120.648438 190.066406 120.648438 C 221.496094 120.648438 247.015625 95.132812 247.015625 63.703125 C 247.015625 32.273438 221.496094 6.753906 190.066406 6.753906 Z M 190.066406 18.144531 C 215.210938 18.144531 235.625 38.5625 235.625 63.703125 C 235.625 88.84375 215.210938 109.261719 190.066406 109.261719 C 164.925781 109.261719 144.507812 88.84375 144.507812 63.703125 C 144.507812 38.5625 164.925781 18.144531 190.066406 18.144531 Z M 184.371094 35.46875 C 176.296875 36.824219 170.136719 43.855469 170.136719 52.3125 C 170.136719 61.742188 177.789062 69.398438 187.21875 69.398438 L 192.914062 69.398438 C 196.058594 69.398438 198.609375 71.949219 198.609375 75.09375 C 198.609375 78.234375 196.058594 80.785156 192.914062 80.785156 L 175.832031 80.785156 C 172.6875 80.785156 170.136719 83.339844 170.136719 86.480469 C 170.136719 89.625 172.6875 92.175781 175.832031 92.175781 L 184.371094 92.175781 L 184.371094 97.871094 C 184.371094 101.015625 186.921875 103.566406 190.066406 103.566406 C 193.210938 103.566406 195.761719 101.015625 195.761719 97.871094 L 195.761719 91.9375 C 203.835938 90.582031 210 83.550781 210 75.09375 C 210 65.660156 202.34375 58.007812 192.914062 58.007812 L 187.21875 58.007812 C 184.078125 58.007812 181.523438 55.457031 181.523438 52.3125 C 181.523438 49.265625 183.917969 46.777344 186.929688 46.625 L 187.21875 46.617188 L 204.304688 46.617188 C 207.449219 46.617188 210 44.066406 210 40.925781 C 210 37.78125 207.449219 35.230469 204.304688 35.230469 L 195.761719 35.230469 L 195.761719 29.535156 C 195.761719 26.390625 193.210938 23.839844 190.066406 23.839844 C 186.921875 23.839844 184.371094 26.390625 184.371094 29.535156 Z M 184.371094 35.46875 "/></g></g></svg>